<?xml version="1.0" standalone="no"?>
<!DOCTYPE svg PUBLIC "-//W3C//DTD SVG 1.1//EN" "http://www.w3.org/Graphics/SVG/1.1/DTD/svg11.dtd" >
<svg xmlns="http://www.w3.org/2000/svg">
<metadata>Generated by IcoMoon</metadata>
<defs>
<font id="icomoon" horiz-adv-x="1024">
<font-face units-per-em="1024" ascent="896" descent="-128" />
<missing-glyph horiz-adv-x="1024" />
<glyph unicode="&#x20;" d="" />
<glyph unicode="&#x344e;" glyph-name="wenzhang" d="M963.584 896q24.576 0 42.496-17.408t17.92-43.008v-692.224q0-8.192-17.92-31.232t-45.056-53.248-60.416-63.488-63.488-60.416-53.248-45.056-31.232-17.92h-692.224q-24.576 0-42.496 17.92t-17.92 42.496v903.168q0 25.6 17.92 43.008t42.496 17.408h903.168zM649.216 83.968q13.312 0 22.528 9.728t9.216 23.040-9.216 22.528-22.528 9.216h-486.4q-13.312 0-23.040-9.216t-9.728-22.528 9.728-23.040 23.040-9.728h486.4zM909.312 344.064q14.336 0 23.552 9.728t9.216 24.064q0 12.288-9.216 21.504t-23.552 9.216h-746.496q-13.312 0-23.040-9.216t-9.728-21.504q0-14.336 9.728-24.064t23.040-9.728h746.496zM909.312 570.368q14.336 0 23.552 9.728t9.216 24.064q0 13.312-9.216 22.528t-23.552 9.216h-746.496q-13.312 0-23.040-9.216t-9.728-22.528q0-14.336 9.728-24.064t23.040-9.728h746.496z" />
<glyph unicode="&#xe601;" glyph-name="data_selfservice" d="M900.506 36.71l3.072-3.174 3.482-3.686 1.536-1.587 2.406-2.56 2.867-2.918 1.997-2.099 10.906-11.418 6.349-6.605 1.638-1.69 5.12-5.376 2.304-2.406 0.307-0.358 4.096-4.198 4.352-4.608 4.198-4.352 1.126-1.178 0.358-0.358 1.331-1.434 1.894-1.946 1.024-1.024 3.482-3.686 0.666-0.666 0.256-0.307 0.512-0.512 0.461-0.512c8.858-9.216 8.704-24.064-0.307-33.178l-4.915-4.966c-4.087-4.137-9.759-6.7-16.030-6.7-6.422 0-12.216 2.687-16.319 6.998l-0.009 0.009-129.638 135.373c-0.254 0.258-0.504 0.525-0.749 0.797l-0.019 0.022c-23.798-19.756-54.662-31.744-88.326-31.744-0.034 0-0.068 0-0.102 0h0.005c-78.131 0-141.517 64.922-141.517 145.050 0 80.179 63.386 145.101 141.517 145.101s141.517-64.922 141.517-145.101c0-26.522-6.963-51.354-19.046-72.755l1.024-0.717c0.102 0 0.154-0.102 0.205-0.154 0.707-0.516 1.324-1.020 1.914-1.553l-0.020 0.017 0.256-0.205c0.319-0.302 0.619-0.603 0.912-0.911l0.010-0.011 0.819-0.87 0.768-0.819 0.205-0.154 0.768-0.819 0.512-0.512 0.512-0.614 1.382-1.382 2.048-2.202 1.126-1.126 0.922-0.973 0.205-0.205c0.614-0.666 1.28-1.382 2.048-2.048l0.614-0.717 0.512-0.563 1.946-2.048 0.717-0.717 0.87-0.922 5.376-5.632 3.072-3.123 9.933-10.445 0.461-0.461 17.203-17.971 8.141-8.448 1.28-1.382 2.458-2.56zM800.87 63.744v0zM800.256 64.41v0zM799.642 65.229v0zM798.976 66.099l-1.536 2.611 1.536-2.56zM798.413 67.021v0zM797.85 67.994l-1.331 2.867c0.41-1.024 0.87-1.946 1.331-2.867zM797.338 68.966v0zM796.877 69.99v0zM796.467 71.014v0zM796.109 72.038v0zM795.802 73.062c-0.256 1.126-0.512 2.202-0.666 3.277l0.666-3.277zM802.15 96.666l-3.226-3.789c1.024 1.28 2.099 2.56 3.226 3.789zM801.126 95.59c-0.922-1.178-1.843-2.304-2.714-3.533 0.87 1.229 1.792 2.355 2.714 3.533zM800.256 94.566l-2.355-3.379 2.355 3.43zM799.539 93.645v0zM798.822 92.621v0zM798.208 91.648v0zM797.696 90.624v0zM797.184 89.6l-1.382-3.482 1.331 3.482zM796.672 88.576v0zM796.262 87.501c-0.098-0.209-0.416-1.41-0.717-2.618l-0.204-0.966 0.922 3.584zM707.789 289.178c-59.699 0-108.032-49.664-108.032-110.848 0-61.235 48.333-110.848 108.032-110.848s108.083 49.664 108.083 110.848-48.384 110.848-108.032 110.848zM815.053 106.598v0zM817.766 107.315c1.024 0.205 2.048 0.41 3.072 0.512-1.024-0.102-2.048-0.307-3.072-0.512zM821.094 107.827l2.406 0.051h-2.406zM822.63 107.878h0.051zM833.434 105.165l1.075-0.614-1.024 0.614zM825.037 107.725c0.563 0 1.126-0.102 1.69-0.205l-1.69 0.256zM826.982 107.469v0zM828.262 107.213v0zM831.693 106.035v0zM848.333 289.28c-16.586 0.201-29.954 13.694-29.954 30.308 0 0.127 0.001 0.253 0.002 0.38v-0.019 107.878c-71.834-52.992-203.878-88.474-354.816-88.474-149.197 0-279.91 34.662-352.307 86.63v-110.080c20.326-51.712 89.088-77.363 166.298-96.256 52.48-11.674 136.909-22.323 183.398-18.022 37.734-6.451 26.368-47.514 10.547-51.2-78.131 0-160.205 10.035-216.678 24.986-64.922 17.203-114.842 40.397-143.565 57.139v-95.078c-0.010-0.793-0.047-1.559-0.11-2.318l0.008 0.116c14.899-57.702 121.6-91.136 205.722-106.496 66.15-10.291 161.28-16.128 242.995-5.939 31.232 4.71 38.707-41.165 18.944-48.384-90.419-12.851-191.283-7.475-269.466 7.373-191.334 36.147-239.36 105.37-253.901 140.339-1.52 2.659-2.691 5.745-3.346 9.019l-0.033 0.197c0.168-0.584-0.006-0.109-0.177 0.368l-0.335 1.066 0.102 1.075c-0.13 1.075-0.204 2.32-0.205 3.583v376.065c-0.158 1.893-0.249 4.098-0.249 6.323s0.090 4.43 0.268 6.61l-0.019-0.287v174.592c0 1.587 0.102 3.226 0.358 4.762-0.391 2.98-0.614 6.427-0.614 9.926 0 0.002 0 0.005 0 0.007v0c0 99.738 185.037 180.531 413.286 180.531 228.301 0 413.338-80.794 413.338-180.531 0-2.355-0.102-4.71-0.307-7.014 0.423-1.938 0.666-4.164 0.666-6.446 0-0.038 0-0.076 0-0.113v0.006-381.952c0-16.947-13.363-30.72-29.901-30.72zM111.206 535.347h1.075l-1.075-3.84v-22.989c15.974-65.894 168.141-117.555 353.434-117.555 186.368 0 339.149 52.224 353.69 118.682v20.787c-0.44 2.041-0.899 3.705-1.436 5.334l0.105-0.367h1.331v86.784c-72.397-52.224-203.776-87.194-353.894-87.194-149.606 0-280.678 34.714-353.229 86.733v-86.374zM464.691 844.8c-195.942 0-354.816-57.754-354.816-129.024 0-71.322 158.874-129.126 354.816-129.126 195.994 0 354.816 57.805 354.816 129.075s-158.822 129.075-354.816 129.075z" />
<glyph unicode="&#xe604;" glyph-name="yuanxing" d="M929.4 560.3c-22.8 53.9-55.5 102.4-97.1 144s-90 74.3-144 97.1c-55.8 23.6-115.1 35.6-176.3 35.6s-120.5-12-176.3-35.6c-53.9-22.8-102.4-55.5-144-97.1s-74.3-90-97.1-144c-23.6-55.8-35.6-115.1-35.6-176.3s12-120.5 35.6-176.3c22.8-53.9 55.5-102.4 97.1-144s90-74.3 144-97.1c55.8-23.6 115.1-35.6 176.3-35.6s120.5 12 176.3 35.6c53.9 22.8 102.4 55.5 144 97.1s74.3 90 97.1 144c23.6 55.8 35.6 115.1 35.6 176.3s-12 120.5-35.6 176.3zM920.2 556.4c22.4-53.1 34.1-109.4 34.8-167.4h-149.5l-82.4 82.4v116.6l105.7 105.7c39-39.9 69.7-86 91.4-137.3zM595.3 182.9h-166.6l-117.8 117.8v166.6l117.8 117.8h166.6l117.8-117.8v-166.6l-117.8-117.8zM713.1 286.6v-103.6h-103.7l103.7 103.6zM512 99.6l-73.3 73.3h146.6l-73.3-73.3zM310.9 286.6l103.6-103.6h-103.6v103.6zM300.9 310.7l-73.3 73.3 73.3 73.3v-146.6zM310.9 481.4v103.7h103.6l-103.6-103.7zM512 668.4l73.3-73.3h-146.6l73.3 73.3zM713.1 481.4l-103.7 103.7h103.6v-103.7zM723.1 457.3l73.3-73.3-73.3-73.3v146.6zM821.7 700.7l-105.7-105.6h-116.6l-82.4 82.4v149.5c58-0.6 114.3-12.3 167.4-34.8 51.3-21.7 97.4-52.4 137.3-91.5zM339.6 792.2c53.1 22.4 109.4 34.1 167.4 34.8v-149.5l-82.4-82.4h-116.6l-105.7 105.6c39.9 39.1 86 69.8 137.3 91.5zM103.8 556.4c21.7 51.2 52.4 97.4 91.4 137.2l105.7-105.6v-116.6l-82.4-82.4h-149.5c0.7 58 12.4 114.3 34.8 167.4zM103.8 211.6c-22.4 53.1-34.1 109.4-34.8 167.4h149.5l82.4-82.4v-116.6l-105.6-105.7c-39.1 39.9-69.8 86-91.5 137.3zM202.3 67.3l105.7 105.6h116.6l82.4-82.4v-149.5c-58 0.6-114.3 12.3-167.4 34.8-51.3 21.7-97.4 52.4-137.3 91.5zM684.4-24.2c-53.1-22.4-109.4-34.1-167.4-34.8v149.5l82.4 82.4h116.6l105.7-105.7c-39.9-39-86-69.7-137.3-91.4zM920.2 211.6c-21.7-51.2-52.4-97.4-91.4-137.2l-105.7 105.6v116.6l82.4 82.4h149.5c-0.7-58-12.4-114.3-34.8-167.4z" />
<glyph unicode="&#xe605;" glyph-name="xiangxia" d="M136.705 246.795c0-9.8 3.7-19.6 11.2-27l336.596-336.596c7.2-7.2 16.9-11.2 27-11.2s19.9 4 27 11.2l337.596 337.596c14.9 14.9 14.9 39.1 0 54.099s-39.2 14.9-54.099 0l-310.496-310.596-309.596 309.596c-14.9 14.9-39.2 14.9-54.099 0-7.4-7.5-11.1-17.3-11.1-27.1zM136.705 551.792c0-9.8 3.7-19.6 11.2-27l336.596-336.596c7.2-7.2 16.9-11.2 27-11.2s19.9 4 27 11.2l337.596 337.596c14.9 14.9 14.9 39.1 0 54.099s-39.2 14.9-54.099 0l-310.496-310.596-309.596 309.496c-14.9 14.9-39.2 14.9-54.099 0-7.4-7.5-11.1-17.2-11.1-27zM136.705 856.688c0-9.8 3.7-19.6 11.2-27l336.596-336.596c7.2-7.2 16.9-11.2 27-11.2s19.9 4 27 11.2l337.596 337.596c14.9 14.9 14.9 39.1 0 54.099s-39.2 14.9-54.099 0l-310.496-310.596-309.596 309.596c-14.9 14.9-39.2 14.9-54.099 0-7.4-7.5-11.1-17.3-11.1-27.1z" />
<glyph unicode="&#xe606;" glyph-name="denglu" d="M512 853.333c-260.267 0-469.333-209.067-469.333-469.333 0-147.2 68.267-279.467 172.8-364.8 81.067-66.133 183.467-104.533 296.533-104.533s215.467 38.4 296.533 104.533c106.667 85.333 172.8 217.6 172.8 364.8 0 260.267-209.067 469.333-469.333 469.333zM512-42.667c-93.867 0-179.2 29.867-249.6 81.067 27.733 113.067 130.133 196.267 249.6 196.267s221.867-83.2 249.6-196.267c-70.4-51.2-155.733-81.067-249.6-81.067zM341.333 448c0 93.867 76.8 170.667 170.667 170.667s170.667-76.8 170.667-170.667-76.8-170.667-170.667-170.667-170.667 76.8-170.667 170.667zM795.733 66.133c-27.733 89.6-96 162.133-183.467 192 68.267 36.267 113.067 106.667 113.067 187.733 0 117.333-96 213.333-213.333 213.333s-213.333-96-213.333-213.333c0-81.067 44.8-151.467 113.067-187.733-87.467-32-155.733-102.4-183.467-192-87.467 78.933-142.933 192-142.933 317.867 0 234.667 192 426.667 426.667 426.667s426.667-192 426.667-426.667c0-125.867-55.467-238.933-142.933-317.867z" />
<glyph unicode="&#xe608;" glyph-name="fangwen" d="M512 153.11c-143.568 0.071-272.463 62.833-360.806 162.391l-0.434 0.499c-16.026 18.020-25.816 41.894-25.816 68.055s9.79 50.035 25.907 68.159l-0.091-0.104c88.761 100.060 217.668 162.804 361.229 162.804 143.594 0 272.527-62.772 360.855-162.373l0.436-0.501c15.99-18.029 25.755-41.894 25.755-68.040 0-26.109-9.738-49.943-25.78-68.069l0.094 0.109c-88.83-100.051-217.749-162.815-361.33-162.93h-0.020zM512 544.82c-122.711-0.020-232.888-53.663-308.378-138.773l-0.372-0.427c-5.041-5.749-8.117-13.33-8.117-21.63 0-8.263 3.048-15.813 8.080-21.589l-0.034 0.039c75.879-85.591 186.107-139.265 308.871-139.265 122.732 0 232.934 53.646 308.437 138.768l0.372 0.427c4.969 5.761 7.996 13.319 7.996 21.584 0 8.303-3.054 15.893-8.101 21.707l0.035-0.041c-75.887 85.525-186.071 139.162-308.784 139.2h-0.006zM512 276c-0.003 0-0.006 0-0.010 0-60.453 0-109.46 49.007-109.46 109.46s49.007 109.46 109.46 109.46c60.436 0 109.432-48.978 109.46-109.407v-0.003c-0.074-60.43-49.025-109.402-109.44-109.51h-0.010zM512 424.84c-0.009 0-0.019 0-0.030 0-21.749 0-39.38-17.631-39.38-39.38s17.631-39.38 39.38-39.38c21.749 0 39.38 17.631 39.38 39.38 0 0.011 0 0.021 0 0.032v-0.002c-0.028 21.723-17.628 39.326-39.347 39.36h-0.003z" />
<glyph unicode="&#xe609;" glyph-name="caidan" horiz-adv-x="1152" d="M978.56 709.818c0-24.522-16.639-46.545-37.159-46.545h-764.214c-20.521 0-37.159 22.023-37.159 46.545v0c0 24.522 16.638 46.545 37.159 46.545h764.214c20.52 0 37.159-22.023 37.159-46.545v0zM978.56 384c0-24.522-16.639-46.545-37.159-46.545h-764.214c-20.521 0-37.159 22.023-37.159 46.545v0c0 24.522 16.638 46.545 37.159 46.545h764.214c20.52 0 37.159-22.023 37.159-46.545v0zM978.56 58.182c0-24.522-16.639-46.545-37.159-46.545h-764.214c-20.521 0-37.159 22.023-37.159 46.545v0c0 24.522 16.638 46.545 37.159 46.545h764.214c20.52 0 37.159-22.023 37.159-46.545v0z" />
<glyph unicode="&#xe60a;" glyph-name="xiangce" d="M902.952 719.203c0.031-0.029 0.087-0.057 0.113-0.112v-670.207c-0.026-0.026-0.056-0.083-0.113-0.109h-781.938c-0.027 0.026-0.083 0.052-0.111 0.109v670.207c0.028 0.028 0.056 0.083 0.111 0.112h781.938zM903.065 775.070h-782.134c-30.727 0-55.867-25.141-55.867-55.867v-670.402c0-30.725 25.14-55.868 55.867-55.868h782.134c30.727 0 55.867 25.143 55.867 55.868v670.402c0 30.726-25.14 55.867-55.867 55.867v0zM791.332 579.536c0-46.286-37.514-83.8-83.8-83.8s-83.801 37.514-83.801 83.8 37.514 83.8 83.801 83.8c46.287 0 83.8-37.513 83.8-83.8zM847.198 104.668h-670.4v111.734l195.533 335.2 223.467-279.333h55.867l195.533 167.6v-335.201z" />
<glyph unicode="&#xe60b;" glyph-name="sousuo" horiz-adv-x="1028" d="M1007.548-3.256l-206.504 206.502c-3.578 3.578-8.033 5.33-12.195 8.033 119.975 169.629 105.078 405.487-46.807 557.372-169.701 169.775-444.918 169.775-614.693 0-169.775-169.701-169.775-444.845 0-614.693 153.563-153.564 392.635-166.708 562.702-42.499 2.702-3.87 4.381-8.105 7.74-11.537l206.505-206.504c28.625-28.552 74.774-28.552 103.253 0 28.478 28.624 28.478 74.847 0 103.325zM655.074 241.073c-121.654-121.655-318.885-121.655-440.611 0-121.654 121.653-121.654 318.957 0 440.61s318.885 121.654 440.611 0c121.727-121.727 121.727-318.958 0-440.611z" />
<glyph unicode="&#xe60c;" glyph-name="dianzan" d="M884.876 472.857h-237.905c92.186 340.464-63.517 357.853-63.517 357.853-65.993 0-52.312-52.182-57.303-60.882 0-166.502-176.85-296.972-176.85-296.972v-472.172c0-46.608 63.517-63.394 88.433-63.394h357.452c33.641 0 61.036 88.224 61.036 88.224 88.434 300.706 88.434 390.177 88.434 390.177 0.001 62.128-59.781 57.164-59.781 57.164v0 0zM251.671 472.7h-142.457c-29.42 0-29.873-28.896-29.873-28.896l29.42-476.203c0-30.309 30.361-30.309 30.361-30.309h123.297c25.686 0 25.459 20.050 25.459 20.050v479.247c0 36.574-36.208 36.111-36.208 36.111v0 0z" />
<glyph unicode="&#xe60d;" glyph-name="shizhong" d="M511.3 832c-247 0-448-201-448-448s201-448 448-448 448 201 448 448-200.9 448-448 448zM735.1 59.9c-8.9 6.2-20.9 7.2-30.9 1.4-10.3-5.9-15.5-17.2-14.2-28.3-45.5-23.3-96-37.9-149.6-41.9-4 11.1-14.5 19-27 19-12.6 0-23.1-8.1-27.1-19.3-49.2 3.1-95.9 15.2-138.5 34.7 3.3 12.3-1.7 25.8-13.3 32.4-12 6.9-26.8 4.2-35.7-5.6-42.2 27.1-78.9 62-108 102.7 11.1 8.7 14.5 24.4 7.3 37-7.5 13-23.6 17.8-37 11.6-23.2 44.8-38 94.7-42.4 147.4 15.6 0.3 28.2 13 28.2 28.7 0 15.9-12.9 28.8-28.8 28.8h-0.1c3.1 50.9 16 99.2 36.7 143.1 0.3-0.2 0.5-0.4 0.7-0.5 13.8-7.9 31.4-3.2 39.3 10.5 7.9 13.8 3.2 31.4-10.5 39.3-0.4 0.3-0.9 0.4-1.3 0.6 28.2 42.4 64.3 79.1 106.3 107.8 0.1-0.2 0.2-0.5 0.3-0.7 7.9-13.8 25.6-18.5 39.3-10.5 13.8 7.9 18.5 25.6 10.5 39.3-0.2 0.3-0.4 0.5-0.6 0.8 44.6 21.8 94 35.4 146.1 38.9 0.5-15.4 13.1-27.8 28.7-27.8 15.4 0 27.9 12.2 28.6 27.5 51.4-4 100-17.9 144-39.7-5.2-13.1-0.3-28.3 12.2-35.5 12.4-7.1 27.8-4 36.6 6.7 41.2-28.5 76.7-64.6 104.4-106.3-8.9-9-11.1-23-4.5-34.5 6.6-11.4 19.7-16.4 31.8-13.4 21.7-45.1 34.9-94.9 37.9-147.5-10.8-4.1-18.6-14.5-18.6-26.8 0-12 7.4-22.3 17.9-26.6-3.9-50.2-17.2-97.8-38.2-141-10.8 1-21.7-4.2-27.5-14.2-5.8-10.1-4.8-22.2 1.6-31.1-27.6-42.1-63.2-78.4-104.6-107zM728.2 290.6l-189.9 109v245.1c0 14.9-12.1 27-27 27s-27-12.1-27-27v-260.7c0-0.3 0.1-0.6 0.1-0.9 0-1 0.2-1.9 0.3-2.9 0.1-0.8 0.2-1.6 0.4-2.5s0.5-1.7 0.8-2.5c0.3-0.8 0.6-1.7 0.9-2.4 0.4-0.8 0.8-1.5 1.2-2.3 0.4-0.7 0.8-1.5 1.3-2.2s1.1-1.4 1.7-2c0.6-0.7 1.1-1.3 1.8-1.9 0.6-0.6 1.3-1.1 1.9-1.6 0.8-0.6 1.5-1.2 2.3-1.7 0.3-0.2 0.5-0.4 0.7-0.5l203.4-116.7c4.2-2.5 8.9-3.6 13.5-3.6 9.3 0 18.4 4.8 23.4 13.5 7.5 12.9 3.1 29.4-9.8 36.8z" />
<glyph unicode="&#xe612;" glyph-name="shizhong1" d="M107.74 385.11c0-223.581 181.249-404.83 404.83-404.83s404.83 181.249 404.83 404.83v0c0 223.581-181.249 404.83-404.83 404.83s-404.83-181.249-404.83-404.83v0zM183.76 390.77c0-181.127 146.833-327.96 327.96-327.96s327.96 146.833 327.96 327.96v0c0 181.127-146.833 327.96-327.96 327.96s-327.96-146.833-327.96-327.96v0zM904 550.48c-66.284 154.532-217.121 260.808-392.78 260.808-235.367 0-426.17-190.803-426.17-426.17s190.803-426.17 426.17-426.17c235.364 0 426.165 190.798 426.17 426.161v0.001c0 0.168 0 0.368 0 0.567 0 59.517-12.28 116.166-34.445 167.551l1.055-2.748zM512.57 0.27c-212.2 0-384.83 172.64-384.83 384.83s172.63 384.84 384.83 384.84 384.84-172.63 384.84-384.83-172.64-384.84-384.84-384.84zM645.68 707.88c-39.773 17.318-86.107 27.394-134.794 27.394-190.72 0-345.33-154.61-345.33-345.33s154.61-345.33 345.33-345.33c190.72 0 345.33 154.61 345.33 345.33 0 95.361-38.653 181.694-101.146 244.186v0c-30.544 30.656-66.853 55.543-107.168 72.899l-2.222 0.851zM511.72 79c-171.91 0-311.72 139.87-311.72 311.77s139.81 311.75 311.72 311.75 311.75-139.85 311.75-311.75-139.85-311.77-311.75-311.77zM496.72 669.49h30v-89h-30v89zM511.72 372c1.102 0.001 2.175 0.121 3.209 0.348l-0.099-0.018h166.1c8.284 0 15 6.716 15 15s-6.716 15-15 15v0h-154.21v93.36c0 8.284-6.716 15-15 15s-15-6.716-15-15v0-108.69c0-8.284 6.716-15 15-15v0zM390.090 625.45c-2.643 4.52-7.472 7.508-13 7.508-8.289 0-15.008-6.719-15.008-15.008 0-2.761 0.746-5.348 2.047-7.571l-0.038 0.071 29.51-51.090c2.643-4.52 7.472-7.508 13-7.508 8.289 0 15.008 6.719 15.008 15.008 0 2.761-0.746 5.348-2.047 7.571l0.038-0.071zM337.62 502.81l-51.050 29.58c-2.152 1.263-4.739 2.008-7.5 2.008-8.289 0-15.008-6.719-15.008-15.008 0-5.528 2.988-10.357 7.437-12.962l0.071-0.038 51.050-29.58c2.156-1.271 4.751-2.021 7.52-2.021 5.515 0 10.335 2.977 12.941 7.411l0.038 0.070c1.275 2.159 2.029 4.758 2.029 7.533 0 5.535-2.997 10.369-7.457 12.969l-0.071 0.038zM317.19 385.74c0 0.033 0 0.072 0 0.11 0 8.246-6.653 14.937-14.885 15h-0.006l-59 0.45c-0.034 0-0.075 0-0.115 0-8.285 0-15-6.716-15-15 0-8.244 6.651-14.935 14.879-15h0.006l59-0.45c0.036 0 0.078 0 0.12 0 8.246 0 14.938 6.653 15 14.885v0.006zM342.47 289c-2.617 4.614-7.497 7.677-13.091 7.677-2.688 0-5.211-0.707-7.393-1.946l0.074 0.039-51.49-28.8c-4.614-2.617-7.677-7.497-7.677-13.091 0-2.688 0.707-5.211 1.946-7.393l-0.039 0.074c2.617-4.614 7.497-7.677 13.091-7.677 2.688 0 5.211 0.707 7.393 1.946l-0.074-0.039 51.49 28.8c4.614 2.617 7.677 7.497 7.677 13.091 0 2.688-0.707 5.211-1.946 7.393l0.039-0.074zM413.63 216.63c-2.187 1.318-4.827 2.097-7.649 2.097-5.46 0-10.239-2.918-12.863-7.279l-0.038-0.068-30.080-50.74c-1.318-2.187-2.097-4.827-2.097-7.649 0-5.46 2.918-10.239 7.279-12.863l0.068-0.038c2.187-1.318 4.827-2.097 7.649-2.097 5.46 0 10.239 2.918 12.863 7.279l0.038 0.068 30.1 50.75c1.312 2.183 2.087 4.817 2.087 7.633 0 5.465-2.922 10.247-7.289 12.869l-0.068 0.038zM513.71 190.92c-0.054 0.001-0.117 0.001-0.181 0.001-8.218 0-14.892-6.608-14.999-14.801v-0.010l-0.73-59c-0.001-0.054-0.001-0.117-0.001-0.181 0-8.218 6.608-14.892 14.801-14.999h0.010c0.054-0.001 0.117-0.001 0.181-0.001 8.218 0 14.892 6.608 14.999 14.801v0.010l0.73 59c0.001 0.054 0.001 0.117 0.001 0.181 0 8.218-6.608 14.892-14.801 14.999h-0.010zM632.070 212.45c-2.589 4.721-7.525 7.869-13.196 7.869-8.284 0-15-6.716-15-15 0-2.842 0.791-5.5 2.164-7.766l-0.038 0.067 29.16-51.29c2.63-4.564 7.482-7.588 13.041-7.588 2.725 0 5.28 0.726 7.482 1.996l-0.073-0.039c4.564 2.63 7.588 7.482 7.588 13.041 0 2.725-0.726 5.28-1.996 7.482l0.039-0.073zM753.36 265.62l-50.91 29.81c-2.169 1.29-4.783 2.053-7.574 2.053-5.491 0-10.294-2.951-12.907-7.354l-0.038-0.069c-1.29-2.169-2.053-4.783-2.053-7.574 0-5.491 2.951-10.294 7.354-12.907l0.069-0.038 50.91-29.81c2.171-1.292 4.786-2.056 7.58-2.056 8.285 0 15.001 6.716 15.001 15.001 0 5.491-2.95 10.293-7.352 12.907l-0.069 0.038zM706.75 387.66c0-0.024 0-0.052 0-0.080 0-8.256 6.67-14.954 14.916-15l59.004-0.31c0.024 0 0.052 0 0.080 0 8.256 0 14.954 6.67 15 14.916v0.004c0 0.024 0 0.052 0 0.080 0 8.256-6.67 14.954-14.916 15l-59.004 0.31c-0.024 0-0.052 0-0.080 0-8.256 0-14.954-6.67-15-14.916v-0.004zM679.37 484.55c2.637-4.535 7.474-7.536 13.011-7.536 2.745 0 5.317 0.737 7.531 2.024l-0.072-0.038 51.22 29.28c4.176 2.71 6.899 7.349 6.899 12.624 0 8.284-6.716 15-15 15-2.477 0-4.814-0.6-6.873-1.664l0.084 0.039-51.17-29.28c-4.564-2.63-7.588-7.482-7.588-13.041 0-2.725 0.726-5.28 1.996-7.482l-0.039 0.073zM607.31 554.63c2.164-1.283 4.771-2.041 7.554-2.041 5.499 0 10.307 2.959 12.918 7.371l0.038 0.070 29.72 51c1.283 2.165 2.041 4.771 2.041 7.555 0 8.285-6.716 15.001-15.001 15.001-5.501 0-10.311-2.961-12.922-7.377l-0.038-0.070-29.72-51c-1.281-2.163-2.038-4.768-2.038-7.55 0-5.502 2.962-10.312 7.379-12.922l0.070-0.038z" />
<glyph unicode="&#xe614;" glyph-name="shizhong2" d="M512.075-6.83c-111.988 0-217.203 43.651-296.377 122.826s-122.826 184.389-122.826 296.377 43.651 217.203 122.826 296.377c79.174 79.174 184.389 122.826 296.377 122.826s217.203-43.651 296.377-122.826c79.174-79.174 122.826-184.389 122.826-296.377-0.151-111.838-43.802-217.052-122.826-296.227-79.325-79.174-184.54-122.826-296.377-122.976zM512.075 816.374c-222.772 0-404.001-181.228-404.001-404.001s181.228-404.001 404.001-404.001c222.622 0.301 403.85 181.529 404.001 404.001 0 222.772-181.228 404.001-404.001 404.001zM512.075 731.179c-12.042 0-21.675 9.784-21.675 21.675v42.598c0 12.042 9.784 21.675 21.675 21.675 12.042 0 21.675-9.784 21.675-21.675v-42.598c0-11.891-9.784-21.675-21.675-21.675zM512.075 802.225c-3.613 0-6.623-3.010-6.623-6.623v-42.598c0-3.613 3.010-6.623 6.623-6.623s6.623 3.010 6.623 6.623v42.447c0 3.763-3.010 6.773-6.623 6.773zM737.256 647.488c-5.569 0-10.838 2.107-14.902 6.021-8.73 8.279-9.031 21.976-0.753 30.706l29.352 30.857c8.279 8.73 21.976 9.031 30.706 0.753s9.031-21.976 0.753-30.706l-29.352-30.857c-4.064-4.215-9.332-6.623-15.203-6.773h-0.602zM766.608 706.644c-1.806 0-3.462-0.753-4.817-2.107l-29.352-30.857c-2.559-2.709-2.408-6.924 0.301-9.483 1.355-1.204 3.010-1.806 4.817-1.806s3.462 0.753 4.666 2.107l29.352 30.857c2.559 2.709 2.408 6.924-0.301 9.483-1.355 1.204-3.010 1.806-4.666 1.806zM271.541 633.49c-5.419 0-10.687 1.957-14.751 5.72l-31.309 28.9c-8.881 8.128-9.332 21.826-1.204 30.706s21.826 9.332 30.706 1.204l31.309-28.9c4.215-3.914 6.773-9.332 6.924-15.052 0.301-5.87-1.806-11.289-5.72-15.654-3.914-4.215-9.332-6.773-15.052-6.924h-0.903zM240.233 690.688c-1.806 0-3.613-0.753-4.967-2.107-2.559-2.709-2.258-6.924 0.452-9.483l31.309-28.9c1.355-1.204 3.010-1.806 4.817-1.806s3.462 0.903 4.666 2.107c1.204 1.355 1.806 3.010 1.806 4.817s-0.903 3.462-2.107 4.666l-31.309 28.9c-1.355 1.204-3.010 1.806-4.666 1.806zM512.075 7.319c-12.042 0-21.675 9.784-21.675 21.675v42.598c0 12.042 9.784 21.675 21.675 21.675 12.042 0 21.675-9.784 21.675-21.675v-42.598c0-11.891-9.784-21.675-21.675-21.675zM512.075 78.365c-3.613 0-6.623-3.010-6.623-6.623v-42.598c0-3.613 3.010-6.623 6.623-6.623s6.623 3.010 6.623 6.623v42.598c0 3.613-3.010 6.623-6.623 6.623zM895.153 390.548h-42.598c-12.042 0-21.675 9.784-21.675 21.675s9.784 21.675 21.675 21.675h42.598c12.042 0 21.675-9.784 21.675-21.675s-9.633-21.675-21.675-21.675zM852.706 418.996c-3.613 0-6.623-3.010-6.623-6.623s3.010-6.623 6.623-6.623h42.598c3.613 0 6.623 3.010 6.623 6.623s-3.010 6.623-6.623 6.623h-42.598zM771.725 112.383c-5.118 0-10.085 1.806-13.999 5.118l-32.513 27.545c-4.365 3.763-7.075 9.031-7.526 14.751s1.355 11.44 5.118 15.805c7.677 9.182 21.525 10.235 30.556 2.559l32.513-27.545c9.182-7.677 10.235-21.525 2.559-30.556-3.763-4.365-9.031-7.075-14.751-7.526-0.753 0-1.355-0.151-1.957-0.151zM739.213 168.377c-1.957 0-3.763-0.753-5.118-2.408-2.408-2.86-1.957-7.075 0.753-9.332l32.513-27.545c1.355-1.204 3.010-1.656 4.817-1.505s3.462 0.903 4.516 2.258c2.408 2.86 1.957 7.075-0.753 9.332l-32.362 27.696c-1.204 1.054-2.709 1.505-4.365 1.505zM171.444 390.548h-42.598c-12.042 0-21.675 9.784-21.675 21.675s9.784 21.675 21.675 21.675h42.598c12.042 0 21.675-9.784 21.675-21.675s-9.784-21.675-21.675-21.675zM128.847 418.996c-3.613 0-6.623-3.010-6.623-6.623s3.010-6.623 6.623-6.623h42.598c3.613 0 6.623 3.010 6.623 6.623s-3.010 6.623-6.623 6.623h-42.598zM204.409 161.002c-0.903 0-1.806 0-2.559 0.151-5.72 0.753-10.838 3.613-14.45 8.128-7.376 9.483-5.72 23.030 3.613 30.556l33.416 26.341c4.516 3.613 10.235 5.118 15.955 4.516 5.72-0.753 10.838-3.613 14.45-8.128 7.376-9.483 5.72-23.030-3.613-30.556l-33.416-26.341c-3.914-3.161-8.58-4.666-13.396-4.666zM237.824 215.641c-1.505 0-2.86-0.452-4.064-1.355l-33.566-26.341c-2.86-2.258-3.462-6.472-1.054-9.332 1.054-1.355 2.709-2.258 4.516-2.559 1.806-0.151 3.462 0.301 4.967 1.355l33.416 26.341c2.86 2.258 3.462 6.472 1.054 9.332-1.054 1.355-2.709 2.258-4.516 2.559h-0.753zM512.075 347.95c-35.523 0-64.273 28.9-64.273 64.273 0 9.483 2.258 18.815 6.322 27.395l-113.493 113.493c-8.279 8.58-8.279 21.826-0.151 30.255 4.064 4.215 9.483 6.472 15.203 6.623 5.87 0.151 11.289-2.107 15.504-6.021l113.493-113.493c17.159 8.279 37.48 8.279 54.639 0l158.198 158.198h0.452c8.429 6.021 20.019 5.268 27.696-2.107 4.215-4.064 6.472-9.483 6.623-15.203 0.151-5.87-2.107-11.289-6.021-15.504l-156.242-156.242c4.064-8.429 6.171-17.762 6.171-27.244 0.151-35.523-28.75-64.423-64.122-64.423zM356.135 574.937c-0.151 0-0.151 0 0 0-1.957 0-3.613-0.753-4.817-2.107-2.559-2.559-2.559-6.623 0-9.332l113.493-113.493c0.602-0.602 1.204-1.054 1.957-1.355l8.279-3.462-4.666-7.526c-4.817-7.677-7.376-16.557-7.376-25.589 0-27.094 22.127-49.221 49.221-49.221s49.221 22.127 49.221 49.221c0 9.031-2.559 17.912-7.376 25.589l-4.666 7.526 8.279 3.462c0.753 0.301 1.355 0.753 1.957 1.355l156.091 156.091c1.204 1.204 1.806 2.86 1.806 4.666s-0.753 3.462-2.107 4.666c-2.559 2.559-6.623 2.559-9.332 0l-1.656-1.505-154.586-154.285c-0.602-0.602-1.054-1.204-1.355-1.957l-3.462-8.279-7.526 4.817c-15.504 9.784-35.674 9.784-51.177 0l-7.526-4.817-3.462 8.279c-0.301 0.753-0.753 1.355-1.355 1.957l-113.493 113.493c-1.054 1.054-2.709 1.806-4.365 1.806zM512.075 376.399c-19.869 0-35.975 16.106-35.975 35.975s16.106 35.975 35.975 35.975 35.975-16.106 35.975-35.975c-0.151-19.869-16.256-35.975-35.975-35.975zM512.075 433.145c-11.44 0-20.923-9.332-20.923-20.923 0-11.44 9.332-20.923 20.923-20.923s20.772 9.483 20.772 20.923c0 11.59-9.332 20.923-20.772 20.923z" />
<glyph unicode="&#xe615;" glyph-name="shouyex" d="M888.832 305.92h-31.232c-16.004 0.417-28.87 13.282-29.286 29.247l-0.001 0.039c0 15.616-642.406-29.286-658.022-29.286h-39.014c-33.229 0-60.57 19.456-74.24 48.794-11.674 31.232-5.837 64.41 17.613 87.859l378.778 378.778c31.232 31.232 82.022 31.232 113.254 0l378.778-378.778c23.45-23.45 29.286-56.627 17.562-87.859-13.67-29.286-40.96-48.794-74.189-48.794zM381.184-76.8h-134.707c-59.098 0.516-106.872 48.272-107.417 107.314v292.916c0 15.667 13.67 29.338 29.286 29.338 10.445 0 81.408-123.648 212.838-370.995 15.616 0 29.286-13.67 29.286-29.286-0.417-16.004-13.282-28.87-29.247-29.286l-0.039-0.001zM624.538-66.202c-2.117-0.521-4.547-0.819-7.047-0.819-0.024 0-0.049 0-0.073 0h0.004c-16.004 0.417-28.87 13.282-29.286 29.247l-0.001 0.039v283.136h-156.16v-283.136c-0.418-16.021-13.312-28.897-29.301-29.286l-0.037-0.001c-0.154-0.003-0.335-0.005-0.517-0.005-15.892 0-28.774 12.883-28.774 28.774 0 0.182 0.002 0.363 0.005 0.544v-0.027l-205.005 356.813c0 27.494 538.010 50.33 666.829 32.768 4.597 3.361 10.352 5.39 16.58 5.427h0.009c15.616 0 29.286-13.67 29.286-29.286v-297.421c0-0.091 0-0.2 0-0.308 0-59.127-47.932-107.059-107.059-107.059-0.126 0-0.252 0-0.378 0.001h-126.905c-8.901 0.149-16.823 4.219-22.132 10.553l-0.037 0.046z" />
<glyph unicode="&#xe61a;" glyph-name="pinglun" d="M869.084 708.867l-0.823-472.611-171.141 0.298c-11.94 0.021-23.395-2.275-34.331-6.904s-20.734-11.253-29.397-19.849l-121.603-121.18-122.176 121.605c-3.971 4.656-8.45 8.644-13.402 11.963-4.969 3.318-10.103 5.969-15.4 7.987-5.315 1.999-10.938 3.673-16.906 4.986-5.948 1.331-11.936 2.011-17.925 2.038l-171.123 0.299 0.823 472.611 713.403-1.242zM889.122 798.393l-753.148 1.311c-19.23 0.034-35.667-6.568-49.296-19.813-13.627-13.247-20.459-29.481-20.492-48.711l-0.895-514.366c-0.034-19.232 6.741-35.506 20.322-48.791s29.996-19.952 49.227-19.986l191.024-0.331 172.845-174.41c3.288-3.317 7.609-4.989 12.91-4.999 1.338-0.002 2.66 0.321 3.981 0.97l7.966 3.985 173.435 173.809 191.023-0.333c19.232-0.033 35.669 6.577 49.299 19.813 13.626 13.239 20.457 29.489 20.49 48.721l0.896 514.365c0.033 19.23-6.742 35.489-20.321 48.783-13.581 13.293-29.997 19.952-49.228 19.985h-0.037zM245.818 474.669c0.029 16.255 5.86 30.183 17.496 41.769 11.616 11.594 25.411 17.378 41.331 17.35 6.622-0.012 12.935-1.026 18.9-3.027 5.948-2.009 11.425-4.84 16.412-8.495 4.968-3.663 9.284-7.976 12.912-12.949 3.609-4.972 6.421-10.458 8.438-16.451 1.997-5.982 2.981-12.298 2.952-18.919-0.043-24.531-11.343-42.087-33.94-52.657-7.966-3.976-16.6-5.96-25.899-5.944-15.902 0.028-29.678 5.859-41.253 17.485-11.596 11.634-17.38 25.583-17.351 41.838v0zM452.76 473.793c0.020 11.272 2.697 21.388 8.032 30.335 5.298 8.946 12.457 16.070 21.421 21.355 8.964 5.295 18.918 7.928 29.882 7.908 10.945-0.018 20.892-2.686 29.837-8.011 8.964-5.325 16.080-12.466 21.365-21.43s7.928-19.081 7.908-30.361c-0.028-15.921-5.859-29.668-17.493-41.262-11.635-11.586-25.575-17.369-41.822-17.34-16.264 0.028-30.183 5.859-41.776 17.485-11.597 11.633-17.379 25.411-17.352 41.321v0zM661.715 473.946c0.028 16.254 5.859 30.183 17.494 41.769 11.633 11.594 25.411 17.377 41.331 17.349 11.252-0.019 21.38-2.696 30.326-8.022 8.947-5.316 16.061-12.465 21.347-21.43 5.303-8.964 7.927-19.081 7.907-30.352-0.028-15.921-5.86-29.669-17.476-41.263-11.634-11.585-25.574-17.369-41.839-17.34-16.264 0.019-30.184 5.851-41.779 17.486-11.593 11.635-17.359 25.574-17.331 41.83l0.018-0.028z" />
<glyph unicode="&#xe61b;" glyph-name="caidan1" d="M184.2 692.7c-47.6 0-86.2-38.6-86.2-86.2s38.6-86.2 86.2-86.2 86.2 38.6 86.2 86.2-38.6 86.2-86.2 86.2zM184.2 462.9c-47.6 0-86.2-38.6-86.2-86.2s38.6-86.2 86.2-86.2 86.2 38.6 86.2 86.2-38.6 86.2-86.2 86.2zM184.2 233c-47.6 0-86.2-38.6-86.2-86.2s38.6-86.2 86.2-86.2 86.2 38.6 86.2 86.2-38.6 86.2-86.2 86.2zM414.1 549.1h459.7c31.7 0 57.5 25.7 57.5 57.5 0 31.7-25.7 57.5-57.5 57.5h-459.7c-31.7 0-57.5-25.7-57.5-57.5s25.7-57.5 57.5-57.5zM873.8 434.1h-459.7c-31.7 0-57.5-25.7-57.5-57.5 0-31.7 25.7-57.5 57.5-57.5h459.7c31.7 0 57.5 25.7 57.5 57.5-0.1 31.8-25.8 57.5-57.5 57.5zM873.8 204.3h-459.7c-31.7 0-57.5-25.7-57.5-57.5 0-31.7 25.7-57.5 57.5-57.5h459.7c31.7 0 57.5 25.7 57.5 57.5-0.1 31.7-25.8 57.5-57.5 57.5z" />
<glyph unicode="&#xe623;" glyph-name="icon_xinyong_xianxing_jijin-" d="M563.2 179.2h-102.4c-14.138 0-25.6 11.462-25.6 25.6s11.462 25.6 25.6 25.6h102.4c0.069 0 0.152 0 0.234 0 14.311 0 27.932 2.957 40.285 8.292l-0.659-0.253c12.647 5.414 23.443 12.813 32.522 21.924l0.003 0.003c9.124 9.106 16.539 19.921 21.722 31.925l0.255 0.664c5.082 11.687 8.039 25.3 8.039 39.605 0 0.085 0 0.17 0 0.255v-0.013 409.6c0 0.081 0 0.178 0 0.274 0 28.185-11.46 53.693-29.974 72.119l-0.004 0.004c-9.095 9.127-19.909 16.535-31.914 21.699l-0.662 0.253c-11.675 5.090-25.278 8.052-39.573 8.052-0.096 0-0.192 0-0.289 0h-409.585c-0.036 0-0.079 0-0.123 0-28.236 0-53.797-11.457-72.286-29.976l-0.001-0.001c-18.528-18.482-29.99-44.039-29.99-72.273 0-0.052 0-0.105 0-0.157v0.008-409.6c0-13.85 2.701-27.264 8.026-39.846 5.413-12.654 12.817-23.454 21.936-32.534l0.004-0.004c18.434-18.541 43.957-30.016 72.161-30.016 0.096 0 0.193 0 0.289 0h51.185c14.138 0 25.6-11.462 25.6-25.6s-11.462-25.6-25.6-25.6h-51.2c-0.080 0-0.176 0-0.271 0-42.334 0-80.651 17.198-108.346 44.988l-0.004 0.004c-27.786 27.688-44.979 65.992-44.979 108.311 0 0.105 0 0.209 0 0.313v-0.016 409.6c0 20.762 4.070 40.883 12.096 59.814 8.129 18.975 19.229 35.174 32.893 48.803l0.003 0.003c27.698 27.787 66.010 44.979 108.337 44.979 0.095 0 0.19 0 0.285 0h409.585c20.749 0 40.87-4.070 59.814-12.096 18.976-8.126 35.176-19.226 48.803-32.892l0.004-0.004c13.673-13.633 24.774-29.837 32.516-47.827l0.38-0.992c8.026-18.944 12.083-39.053 12.083-59.789v-409.6c0-20.736-4.058-40.858-12.083-59.802-8.131-18.981-19.235-35.185-32.905-48.816l-0.004-0.004c-13.625-13.679-29.826-24.78-47.816-32.517l-0.991-0.379c-17.561-7.639-38.017-12.083-59.511-12.083-0.102 0-0.204 0-0.306 0h0.016zM870.4-128h-409.6c-0.080 0-0.176 0-0.271 0-42.334 0-80.651 17.198-108.346 44.988l-0.004 0.004c-27.786 27.688-44.979 65.992-44.979 108.311 0 0.105 0 0.209 0 0.313v-0.016 409.6c0 20.762 4.070 40.883 12.096 59.814 8.129 18.975 19.229 35.174 32.893 48.803l0.003 0.003c27.729 27.788 66.068 44.979 108.422 44.979 0.065 0 0.131 0 0.196 0h102.39c14.138 0 25.6-11.462 25.6-25.6s-11.462-25.6-25.6-25.6h-102.4c-0.058 0-0.126 0-0.195 0-28.21 0-53.743-11.459-72.199-29.975l-0.003-0.003c-18.535-18.483-30.003-44.045-30.003-72.286 0-0.048 0-0.096 0-0.144v0.007-409.6c0-13.85 2.701-27.264 8.026-39.846 5.413-12.654 12.817-23.454 21.936-32.534l0.004-0.004c18.434-18.541 43.957-30.016 72.161-30.016 0.096 0 0.193 0 0.289 0h409.585c0.069 0 0.152 0 0.234 0 14.311 0 27.932 2.957 40.285 8.292l-0.659-0.253c12.647 5.414 23.443 12.813 32.522 21.924l0.003 0.003c9.124 9.106 16.539 19.921 21.722 31.925l0.255 0.664c5.082 11.687 8.039 25.3 8.039 39.605 0 0.085 0 0.17 0 0.255v-0.013 409.6c0 0.081 0 0.178 0 0.274 0 28.185-11.46 53.693-29.974 72.119l-0.004 0.004c-9.095 9.127-19.909 16.535-31.914 21.699l-0.662 0.253c-11.675 5.090-25.278 8.052-39.573 8.052-0.096 0-0.192 0-0.289 0h-51.185c-14.138 0-25.6 11.462-25.6 25.6s11.462 25.6 25.6 25.6h51.2c20.749 0 40.87-4.070 59.814-12.096 18.976-8.126 35.176-19.226 48.803-32.892l0.004-0.004c13.673-13.633 24.774-29.837 32.516-47.827l0.38-0.992c8.026-18.944 12.083-39.053 12.083-59.789v-409.6c0-20.736-4.058-40.858-12.083-59.802-8.131-18.981-19.235-35.185-32.905-48.816l-0.004-0.004c-13.625-13.679-29.826-24.78-47.816-32.517l-0.991-0.379c-17.561-7.639-38.017-12.083-59.511-12.083-0.102 0-0.204 0-0.306 0h0.016z" />
<glyph unicode="&#xe624;" glyph-name="icon_xinyong_xianxing_jijin-1" d="M563.2 179.2h-102.4c-14.138 0-25.6 11.462-25.6 25.6s11.462 25.6 25.6 25.6h102.4c0.069 0 0.152 0 0.234 0 14.311 0 27.932 2.957 40.285 8.292l-0.659-0.253c12.647 5.414 23.443 12.813 32.522 21.924l0.003 0.003c9.124 9.106 16.539 19.921 21.722 31.925l0.255 0.664c5.082 11.687 8.039 25.3 8.039 39.605 0 0.085 0 0.17 0 0.255v-0.013 409.6c0 0.081 0 0.178 0 0.274 0 28.185-11.46 53.693-29.974 72.119l-0.004 0.004c-9.095 9.127-19.909 16.535-31.914 21.699l-0.662 0.253c-11.675 5.090-25.278 8.052-39.573 8.052-0.096 0-0.192 0-0.289 0h-409.585c-0.036 0-0.079 0-0.123 0-28.236 0-53.797-11.457-72.286-29.976l-0.001-0.001c-18.528-18.482-29.99-44.039-29.99-72.273 0-0.052 0-0.105 0-0.157v0.008-409.6c0-13.85 2.701-27.264 8.026-39.846 5.413-12.654 12.817-23.454 21.936-32.534l0.004-0.004c18.434-18.541 43.957-30.016 72.161-30.016 0.096 0 0.193 0 0.289 0h51.185c14.138 0 25.6-11.462 25.6-25.6s-11.462-25.6-25.6-25.6h-51.2c-0.080 0-0.176 0-0.271 0-42.334 0-80.651 17.198-108.346 44.988l-0.004 0.004c-27.786 27.688-44.979 65.992-44.979 108.311 0 0.105 0 0.209 0 0.313v-0.016 409.6c0 20.762 4.070 40.883 12.096 59.814 8.129 18.975 19.229 35.174 32.893 48.803l0.003 0.003c27.698 27.787 66.010 44.979 108.337 44.979 0.095 0 0.19 0 0.285 0h409.585c20.749 0 40.87-4.070 59.814-12.096 18.976-8.126 35.176-19.226 48.803-32.892l0.004-0.004c13.673-13.633 24.774-29.837 32.516-47.827l0.38-0.992c8.026-18.944 12.083-39.053 12.083-59.789v-409.6c0-20.736-4.058-40.858-12.083-59.802-8.131-18.981-19.235-35.185-32.905-48.816l-0.004-0.004c-13.625-13.679-29.826-24.78-47.816-32.517l-0.991-0.379c-17.561-7.639-38.017-12.083-59.511-12.083-0.102 0-0.204 0-0.306 0h0.016zM870.4-128h-409.6c-0.080 0-0.176 0-0.271 0-42.334 0-80.651 17.198-108.346 44.988l-0.004 0.004c-27.786 27.688-44.979 65.992-44.979 108.311 0 0.105 0 0.209 0 0.313v-0.016 409.6c0 20.762 4.070 40.883 12.096 59.814 8.129 18.975 19.229 35.174 32.893 48.803l0.003 0.003c27.729 27.788 66.068 44.979 108.422 44.979 0.065 0 0.131 0 0.196 0h102.39c14.138 0 25.6-11.462 25.6-25.6s-11.462-25.6-25.6-25.6h-102.4c-0.058 0-0.126 0-0.195 0-28.21 0-53.743-11.459-72.199-29.975l-0.003-0.003c-18.535-18.483-30.003-44.045-30.003-72.286 0-0.048 0-0.096 0-0.144v0.007-409.6c0-13.85 2.701-27.264 8.026-39.846 5.413-12.654 12.817-23.454 21.936-32.534l0.004-0.004c18.434-18.541 43.957-30.016 72.161-30.016 0.096 0 0.193 0 0.289 0h409.585c0.069 0 0.152 0 0.234 0 14.311 0 27.932 2.957 40.285 8.292l-0.659-0.253c12.647 5.414 23.443 12.813 32.522 21.924l0.003 0.003c9.124 9.106 16.539 19.921 21.722 31.925l0.255 0.664c5.082 11.687 8.039 25.3 8.039 39.605 0 0.085 0 0.17 0 0.255v-0.013 409.6c0 0.081 0 0.178 0 0.274 0 28.185-11.46 53.693-29.974 72.119l-0.004 0.004c-9.095 9.127-19.909 16.535-31.914 21.699l-0.662 0.253c-11.675 5.090-25.278 8.052-39.573 8.052-0.096 0-0.192 0-0.289 0h-51.185c-14.138 0-25.6 11.462-25.6 25.6s11.462 25.6 25.6 25.6h51.2c20.749 0 40.87-4.070 59.814-12.096 18.976-8.126 35.176-19.226 48.803-32.892l0.004-0.004c13.673-13.633 24.774-29.837 32.516-47.827l0.38-0.992c8.026-18.944 12.083-39.053 12.083-59.789v-409.6c0-20.736-4.058-40.858-12.083-59.802-8.131-18.981-19.235-35.185-32.905-48.816l-0.004-0.004c-13.625-13.679-29.826-24.78-47.816-32.517l-0.991-0.379c-17.561-7.639-38.017-12.083-59.511-12.083-0.102 0-0.204 0-0.306 0h0.016z" />
<glyph unicode="&#xe625;" glyph-name="-" d="M277.333 192c0-35.346 28.654-64 64-64s64 28.654 64 64v0c0 35.346-28.654 64-64 64s-64-28.654-64-64v0zM736 416h-213.333v128c0 23.531 19.136 42.667 42.667 42.667s42.667-19.136 42.667-42.667c0-58.816 47.851-106.667 106.667-106.667s106.667 47.851 106.667 106.667v224c0 17.673-14.327 32-32 32s-32-14.327-32-32v0-224c0-23.531-19.136-42.667-42.667-42.667s-42.667 19.136-42.667 42.667c0 58.816-47.851 106.667-106.667 106.667s-106.667-47.851-106.667-106.667v-128h-170.667c-123.712 0-224-100.288-224-224s100.288-224 224-224h448c123.712 0 224 100.288 224 224s-100.288 224-224 224zM341.333 64c-70.692 0-128 57.308-128 128s57.308 128 128 128v0c70.692 0 128-57.308 128-128s-57.308-128-128-128v0zM704 117.333c-17.674 0.006-32 14.335-32 32.011 0 17.679 14.332 32.011 32.011 32.011 0.004 0 0.008 0 0.011 0h-0.001c17.674-0.006 32-14.335 32-32.011 0-17.679-14.332-32.011-32.011-32.011-0.004 0-0.008 0-0.011 0h0.001zM768 202.667c-17.674 0.006-32 14.335-32 32.011 0 17.679 14.332 32.011 32.011 32.011 0.004 0 0.008 0 0.011 0h-0.001c17.674-0.006 32-14.335 32-32.011 0-17.679-14.332-32.011-32.011-32.011-0.004 0-0.008 0-0.011 0h0.001z" />
<glyph unicode="&#xe62e;" glyph-name="weixin1" d="M137.4 390.7c17.5 0.6 31.2 15.3 30.6 32.8-5.1 149.6 98 279.3 245.2 308.2 164.5 32.5 324.7-75 357.1-239.5 4.8-24.6 6.2-49.1 5.1-73.1 3.6-0.8 7.2-1.5 10.8-2.5 18.3-5.2 35.4-12.7 51.2-21.7 3.8 35.7 2.4 72.5-4.9 109.6-39.1 198.8-232.7 328.7-431.5 289.5-177.9-35-302.5-191.8-296.3-372.7 0.6-17.4 15-32 32.7-30.6zM506.2 131.7c-82.4-9.4-164.8 14.8-229.3 68.7l-9.3 7.7-97.3-2.9 13.5 25.1c8.3 15.4 2.5 34.7-12.9 43-15.5 8.3-34.7 2.5-43-12.9l-65.6-121.9 183.4 5.6c65.3-51.1 144.6-78.2 225.9-78.2 20.9 0 41.9 2.1 62.9 5.7-12.3 18.5-21.8 38.8-28.3 60.1zM705.3-29.4c50.2-4.2 100.6 8.5 143.5 36.7l113-12.8-34.2 78.7c-4.3 10-15.9 14.5-25.9 10.2s-14.5-15.9-10.2-25.9l7-16.2-59.9 6.8-6.1-4.3c-46.8-33-105.2-43-160.1-27.3-99.9 28.4-158.1 132.9-129.7 232.8s132.9 158.2 232.8 129.6c89.4-25.4 146.4-110.8 135.6-202.9-1.3-10.8 6.5-20.6 17.2-21.8 10.9-1.8 20.6 6.5 21.8 17.2 13.1 111.4-55.9 214.6-163.9 245.3-120.8 34.4-247-35.9-281.4-156.7s35.9-247 156.7-281.4c14.5-4.2 29.2-6.8 43.8-8zM311.1 507.7c0-22.533 18.267-40.8 40.8-40.8s40.8 18.267 40.8 40.8v0c0 22.533-18.267 40.8-40.8 40.8s-40.8-18.267-40.8-40.8v0zM563.8 507.7c0-22.533 18.267-40.8 40.8-40.8s40.8 18.267 40.8 40.8v0c0 22.533-18.267 40.8-40.8 40.8s-40.8-18.267-40.8-40.8v0zM630.7 238.4c0-12.813 10.387-23.2 23.2-23.2s23.2 10.387 23.2 23.2v0c0 12.813-10.387 23.2-23.2 23.2s-23.2-10.387-23.2-23.2v0zM769.7 238.4c0-12.813 10.387-23.2 23.2-23.2s23.2 10.387 23.2 23.2v0c0 12.813-10.387 23.2-23.2 23.2s-23.2-10.387-23.2-23.2v0z" />
<glyph unicode="&#xe635;" glyph-name="weibo" d="M845.248 429.952c-1.344 0-2.688 0.064-4.032 0.448-9.536 2.112-15.616 11.648-13.504 21.312 11.2 49.728 6.592 84.992-13.568 104.768-33.344 32.768-100.928 16.96-101.568 16.768-9.664-2.368-19.328 3.584-21.568 13.12-2.304 9.6 3.456 19.2 13.12 21.568 3.584 0.896 87.424 20.736 134.912-25.856 29.568-29.056 37.504-75.456 23.424-138.112-1.728-8.384-9.088-14.016-17.216-14.016zM961.536 381.12c-1.344 0-2.56 0.128-3.968 0.32-12.928 2.176-21.696 14.464-19.584 27.328 20.032 121.088 3.84 205.888-48.192 252.224-80.256 71.296-223.616 30.784-225.088 30.4-12.544-3.648-25.728 3.648-29.44 16.192-3.584 12.544 3.648 25.728 16.32 29.504 6.784 2.048 169.6 48.32 269.76-40.384 65.216-57.856 86.656-157.312 63.68-295.616-1.984-11.712-12.032-19.968-23.488-19.968zM744.512 381.12c0 0 98.688 234.816-230.4 117.824 10.432 123.392-43.136 198.272-203.776 107.072 0 0-521.92-353.856-141.248-579.904 0 0 478.72-197.76 695.936 169.536 43.072 132.288-84.8 187.456-120.512 185.472zM435.648 26.56c-158.336-18.112-296.512 52.288-308.544 157.44s106.496 205.056 264.832 223.168c158.4 18.24 296.576-52.224 308.608-157.312 12.096-105.088-106.56-205.12-264.896-223.296zM550.144 215.616c-6.528 71.936-81.024 124.032-166.336 116.288s-149.184-72.256-142.656-144.256c6.528-72 80.96-124.096 166.272-116.288 85.376 7.68 149.184 72.32 142.72 144.256zM347.776 124.288c-26.368 0-47.808 19.968-47.808 44.544s21.44 44.608 47.808 44.608c26.496 0 47.872-20.032 47.872-44.608s-21.44-44.544-47.872-44.544zM430.464 199.36c-11.84 0-21.44 9.536-21.44 21.376 0 11.904 9.6 21.504 21.44 21.504s21.44-9.6 21.44-21.504c0.064-11.776-9.6-21.376-21.44-21.376z" />
<glyph unicode="&#xe636;" glyph-name="liuyan2" d="M867.607 739.559c-23.331 23.331-50.642 40.624-76.918 48.702-33.182 10.219-63.437 4.951-82.838-14.45l-536.918-536.918c-4.115-4.115-7.125-9.215-8.713-14.801l-58.219-203.792c-3.429-11.975-0.084-24.837 8.713-33.634 6.506-6.523 15.253-10.035 24.218-10.035 3.145 0 6.306 0.435 9.416 1.321l203.792 58.219c5.586 1.589 10.687 4.6 14.801 8.713l536.934 536.918c35.74 35.775 21.005 104.464-34.27 159.757zM755.149 724.556c6.272 2.475 34.386-3.813 64.023-33.432 29.603-29.62 35.891-57.801 34.252-62.869l-33.165-33.182-97.205 97.205 32.095 32.278zM212.094 147.299l63.254-63.254-88.542-25.288 25.288 88.542zM340.724 115.539l-97.137 97.137 431.099 431.099 97.137-97.137-431.099-431.099z" />
<glyph unicode="&#xe637;" glyph-name="liuyan21" d="M867.607 739.559c-23.331 23.331-50.642 40.624-76.918 48.702-33.182 10.219-63.437 4.951-82.838-14.45l-536.918-536.918c-4.115-4.115-7.125-9.215-8.713-14.801l-58.219-203.792c-3.429-11.975-0.084-24.837 8.713-33.634 6.506-6.523 15.253-10.035 24.218-10.035 3.145 0 6.306 0.435 9.416 1.321l203.792 58.219c5.586 1.589 10.687 4.6 14.801 8.713l536.934 536.918c35.74 35.775 21.005 104.464-34.27 159.757zM755.149 724.556c6.272 2.475 34.386-3.813 64.023-33.432 29.603-29.62 35.891-57.801 34.252-62.869l-33.165-33.182-97.205 97.205 32.095 32.278zM212.094 147.299l63.254-63.254-88.542-25.288 25.288 88.542zM340.724 115.539l-97.137 97.137 431.099 431.099 97.137-97.137-431.099-431.099z" />
<glyph unicode="&#xe63a;" glyph-name="github" d="M512 853.333c-1.403 0.015-3.061 0.024-4.721 0.024-254.822 0-461.733-205.132-464.61-459.272l-0.002-0.272c1.024-203.513 133.941-375.711 317.598-435.562l3.256-0.918c23.467-4.267 32 9.813 32 22.187v78.080c-130.56-27.733-158.293 61.44-158.293 61.44-9.044 28.536-27.453 51.925-51.549 67.116l-0.504 0.297c-42.667 28.16 3.413 27.733 3.413 27.733 30.629-4.206 56.403-21.96 71.432-46.916l0.248-0.444c17.804-30.463 50.348-50.603 87.597-50.603 17.96 0 34.826 4.682 49.445 12.892l-0.509-0.263c2.548 24.285 13.494 45.625 29.838 61.412l0.029 0.028c-104.107 11.52-213.333 50.773-213.333 226.987-0.023 1.067-0.036 2.325-0.036 3.586 0 46.634 18.028 89.057 47.494 120.68l-0.098-0.106c-6.079 16.305-9.596 35.143-9.596 54.802 0 24.050 5.264 46.871 14.703 67.373l-0.414-1.002s39.68 12.373 128-46.933c35.195 9.757 75.609 15.365 117.333 15.365s82.138-5.608 120.53-16.111l-3.196 0.745c89.6 59.307 128 46.933 128 46.933 9.025-19.5 14.29-42.321 14.29-66.371 0-19.66-3.518-38.498-9.958-55.92l0.362 1.117c30.882-31.834 49.92-75.31 49.92-123.233 0-0.026 0-0.052 0-0.078v0.004c0-176.64-110.080-215.467-213.333-226.987 19.972-19.407 32.364-46.521 32.364-76.53 0-3.099-0.132-6.166-0.391-9.198l0.027 0.395v-125.867c0-14.933 8.533-26.88 32-22.187 186.343 61.127 318.767 232.963 319.999 435.906l0.001 0.147c-2.879 254.412-209.79 459.544-464.612 459.544-1.66 0-3.318-0.009-4.974-0.026l0.253 0.002" />
<glyph unicode="&#xe63c;" glyph-name="tianchongxing-" d="M39.9 387.5c0-259.298 210.202-469.5 469.5-469.5s469.5 210.202 469.5 469.5v0c0 259.298-210.202 469.5-469.5 469.5s-469.5-210.202-469.5-469.5v0zM617.9 428.8c-0.3 0.6-0.5 1.2-0.8 1.8-0.1 0.1-0.1 0.2-0.2 0.4-7.2 14.5-22.7 23.9-39.9 22.6-22.5-1.8-39.4-21.5-37.6-44 0.5-5.8 2.1-11.1 4.6-15.9 11.4-25.7 6.4-57-14.6-78.1l-110-110.2c-27.3-27.3-71.7-27.3-99 0s-27.3 71.7 0 99l41 41-0.3 0.3c9.5 8.2 15 20.7 14 34.1-1.8 22.5-21.5 39.4-44 37.6-10.8-0.8-20.2-5.8-27-13.2l-0.1 0.1-41.8-41.8c-59.4-59.4-59.4-155.6 0-215s155.6-59.4 215 0l110.3 110.3c46.2 46.3 56.2 114.8 30.4 171zM762.4 638.6c-59.4 59.4-155.6 59.4-215 0l-110.3-110.3c-46.2-46.2-56.2-114.7-30.5-170.9 0.3-0.6 0.5-1.2 0.8-1.8 0.1-0.1 0.1-0.2 0.2-0.4 7.2-14.5 22.7-23.9 39.9-22.6 22.5 1.8 39.4 21.5 37.6 44-0.5 5.8-2.1 11.1-4.6 15.9-11.4 25.7-6.4 57 14.6 78.1l110.1 110.1c27.3 27.3 71.7 27.3 99 0s27.3-71.7 0-99l-41-41 0.3-0.3c-9.5-8.2-15-20.7-14-34.1 1.8-22.5 21.5-39.4 44-37.6 10.8 0.8 20.2 5.8 27 13.2l0.1-0.1 41.8 41.8c59.3 59.4 59.3 155.7 0 215z" />
<glyph unicode="&#xe642;" glyph-name="qzone" d="M753.755 226.861c-98.163 7.774-196.357 15.548-294.52 23.321 5.306 2.592 10.615 5.181 15.919 7.772 90.203 64.772 180.437 129.563 270.64 194.335-5.306 0-10.615 0-15.921 0-97.455 42.083-397.55 32.699-485.557-7.772 116.733-7.774 233.505-15.547 350.238-23.321-2.654-5.181-5.306-10.365-7.96-15.546-95.512-62.179-191.047-124.381-286.558-186.562 0-2.592 0-5.18 0-7.773 174.163-23.443 364.193-2.403 525.357 15.547 0-2.592 0-5.182 0-7.773-5.304 0-10.615 0-15.919 0-29.503-23.218-34.162-10.548-39.801-62.188 13.266-64.771 26.535-129.563 39.801-194.333-2.654-2.595-5.306-5.182-7.96-7.773-10.612 0-21.229 0-31.841 0-63.725 53.829-178.625 131.244-278.598 139.921-82.247-46.638-164.513-93.285-246.759-139.921-10.611 5.179-21.229 10.365-31.84 15.545 18.57 101.045 37.149 202.121 55.72 303.164-74.286 67.363-148.593 134.744-222.879 202.107 1.79 5.242 3.578 10.483 5.367 15.724 0.288 0.844 0.577 1.688 0.864 2.531 0.577 1.688 1.152 3.377 1.729 5.065 98.163 12.954 196.356 25.913 294.519 38.868 53.062 93.273 106.139 186.568 159.199 279.842 5.306 0 10.615 0 15.921 0 45.101-95.862 90.217-191.754 135.32-287.616 103.467-10.362 206.969-20.731 310.437-31.094 2.656-5.181 5.306-10.366 7.96-15.546-74.285-72.545-148.593-145.11-222.878-217.656 0.001-12.955 0.001-25.913 0.001-38.868z" />
<glyph unicode="&#xe651;" glyph-name="search1" d="M883.627 72.96l-145.067 144.64c44.951 56.854 72.107 129.579 72.107 208.646 0 0.148 0 0.295 0 0.443v-0.023c0 188.513-152.82 341.333-341.333 341.333s-341.333-152.82-341.333-341.333c0-188.513 152.82-341.333 341.333-341.333v0c0.125 0 0.272 0 0.42 0 79.067 0 151.792 27.155 209.357 72.648l-0.71-0.541 144.64-145.067c7.733-7.795 18.45-12.621 30.293-12.621s22.56 4.826 30.291 12.618l0.003 0.003c7.795 7.733 12.621 18.45 12.621 30.293s-4.826 22.56-12.618 30.291l-0.003 0.003zM213.333 426.667c0 141.385 114.615 256 256 256s256-114.615 256-256c0-141.385-114.615-256-256-256v0c-141.385 0-256 114.615-256 256v0z" />
<glyph unicode="&#xe658;" glyph-name="anli" d="M999.075 533.703l-439.147-214.069c-12.572-11.163-29.219-17.982-47.46-17.982-0.295 0-0.589 0.002-0.883 0.005h0.045c-18.119 0-34.73 6.002-47.558 17.977l-439.147 214.069-3.783 2.987c-13.052 12.898-21.135 30.799-21.135 50.587 0 0.115 0 0.23 0.001 0.345v-0.018c0 19.456 7.566 37.432 21.134 50.886l3.015 3.015 439.175 236.54c12.548 11.146 29.166 17.954 47.375 17.954 0.325 0 0.649-0.002 0.972-0.006l-0.049 0.001c18.090 0 34.702-6.741 48.298-17.948l439.147-236.54 3.015-3.015c13.596-13.454 21.134-31.431 21.134-50.886s-7.538-37.432-21.134-50.915l-3.015-2.987zM962.866 597.332l-437.668 235.801-3.015 2.987c-3.084 2.78-7.189 4.48-11.69 4.48s-8.606-1.7-11.706-4.494l0.016 0.014-3.015-2.987-437.668-235.801c-1.508-2.987-3.015-5.973-3.015-8.988 1.508-3.726 2.247-6.713 3.755-8.988h0.028l437.639-213.33 3.015-2.987c6.059-5.973 16.611-5.973 23.409 0l3.015 2.987 437.668 213.33c1.424 2.338 2.267 5.166 2.267 8.19 0 0.281-0.007 0.56-0.022 0.837l0.002-0.039c0 3.015-0.74 6.741-3.015 8.988zM61.903 169.933c-2.871-3.018-4.637-7.111-4.637-11.616 0-3.176 0.878-6.147 2.404-8.684l-0.042 0.076 437.668-213.33 3.015-2.987c6.030-6.002 16.583-6.002 23.381 0l3.015 2.987 437.668 213.33c1.484 2.461 2.362 5.432 2.362 8.608 0 4.505-1.766 8.598-4.644 11.623l0.007-0.007 39.992 39.651c13.289-13.044 21.526-31.195 21.526-51.27s-8.237-38.227-21.515-51.259l-0.011-0.011-3.015-2.987-439.147-214.069c-12.426-11.162-28.943-17.988-47.055-17.988-0.437 0-0.873 0.004-1.308 0.012l0.065-0.001c-0.089 0-0.193-0.001-0.298-0.001-18.176 0-34.759 6.819-47.33 18.039l0.070-0.061-439.147 214.069-3.015 2.987c-13.275 13.050-21.501 31.2-21.501 51.27s8.226 38.22 21.491 51.26l0.010 0.010 39.992-39.651zM511.631 86.848c-18.119 0-34.73 5.973-47.558 17.948l-435.392 211.851c-2.911 1.371-5.402 3.126-7.541 5.237l0.003-0.003c-13.051 12.889-21.135 30.783-21.135 50.564 0 0.113 0 0.227 0.001 0.34v-0.017c0 19.484 7.566 37.432 21.134 50.915l39.992-39.679c-2.796-2.756-4.528-6.585-4.528-10.819 0-0.146 0.002-0.292 0.006-0.438v0.021c0.035-3.29 0.862-6.38 2.299-9.097l-0.052 0.108 433.913-211.083c2.911-1.371 5.402-3.126 7.541-5.237l-0.003 0.003c6.030-5.973 16.583-5.973 23.381 0 2.136 2.108 4.627 3.862 7.375 5.164l0.163 0.070 433.885 211.083c1.442 2.328 2.297 5.152 2.297 8.176 0 0.286-0.008 0.57-0.023 0.852l0.002-0.039c0.004 0.124 0.006 0.27 0.006 0.416 0 4.234-1.732 8.063-4.527 10.817l-0.002 0.002 39.992 39.679c13.568-13.482 21.134-31.431 21.134-50.915 0-19.456-7.566-37.404-21.134-50.886-2.136-2.108-4.627-3.862-7.375-5.164l-0.163-0.070-435.392-212.59c-12.839-10.709-29.513-17.211-47.706-17.211-0.208 0-0.416 0.001-0.624 0.003h0.032z" />
<glyph unicode="&#xe65b;" glyph-name="pailie" d="M704-64v256h256v-256h-256zM704 512h256v-256h-256v256zM704 832h256v-256h-256v256zM384 192h256v-256h-256v256zM384 512h256v-256h-256v256zM384 832h256v-256h-256v256zM64 192h256v-256h-256v256zM64 512h256v-256h-256v256zM64 832h256v-256h-256v256z" />
<glyph unicode="&#xe65f;" glyph-name="xiangce1" d="M297.658 713.221c-63.765 0-115.634-51.888-115.634-115.653 0-63.76 51.869-115.653 115.634-115.653 63.76 0 115.653 51.893 115.653 115.653 0 63.784-51.893 115.653-115.653 115.653zM843.817 879.424h-664.889c-89.948 0-163.126-73.179-163.126-163.146v-664.868c0-89.903 73.179-163.122 163.126-163.122h664.926c89.862 0 163.084 73.22 163.084 163.122v664.868c0 89.967-73.179 163.146-163.122 163.146zM965.581 267.521l-273.369 273.39c-7.746 7.741-21.456 7.741-29.198 0l-270.375-270.336-92.259 92.237c-7.742 7.782-21.471 7.782-29.218 0l-214.041-214.065v567.53c0 67.173 54.635 121.826 121.806 121.826h664.889c67.149 0 121.764-54.653 121.764-121.826v-448.757zM965.581 267.521" />
<glyph unicode="&#xe664;" glyph-name="icon-arrow-left2" d="M747.245 814.936c-28.497 29.315-74.739 29.315-103.307 0l-367.236-378.011c-28.483-29.367-28.483-76.982 0-106.291l367.236-377.997c28.562-29.367 74.806-29.367 103.307 0 28.546 29.325 28.546 76.929 0 106.304l-315.6 324.841 315.599 324.803c28.545 29.367 28.544 76.973 0 106.356v0z" />
<glyph unicode="&#xe665;" glyph-name="weixin" d="M683.058 531.305c11 0 22-1.016 32.943-1.976-29.437 136.607-177.105 238.671-345.32 238.671-188.104-0.66-342.237-127.793-342.237-289.226 0-93.068 51.379-169.827 136.725-229.256l-34.449-101.948 119.796 59.368c42.918-8.395 77.37-16.79 119.742-16.79 11 0 21.46 0.48 31.914 1.442-6.491 21.336-10.3 45.872-10.455 71.275v0.083c0.485 148.002 128.744 268.297 291.403 268.297l-0.060 0.060zM498.945 623.297c25.99 0 42.913-16.79 42.913-42.575 0-25.188-16.923-42.579-42.913-42.579-25.45 0-51.38 16.85-51.38 42.58 0 25.784 25.93 42.574 51.38 42.574zM259.401 538.143c-25.384 0-51.374 16.85-51.374 42.58 0 25.784 25.99 42.574 51.374 42.574 25.45 0 42.918-16.79 42.918-42.575 0-25.188-16.924-42.579-42.918-42.579zM995.556 266.488c0 135.647-136.725 246.527-290.983 246.527-162.655 0-290.918-110.88-290.918-246.527 0-136.128 128.263-246.587 290.918-246.587 33.972 0 68.423 8.395 102.818 16.85l93.809-50.973-25.93 84.677c68.907 51.93 120.286 119.815 120.286 196.033zM610.281 309.068c-16.923 0-34.452 16.79-34.452 34.179 0 16.79 17.529 34.18 34.452 34.18 25.99 0 42.918-16.85 42.918-34.18 0-17.39-16.928-34.18-42.918-34.18zM798.446 309.068c-16.984 0-33.972 16.79-33.972 34.179 0 16.79 16.927 34.18 33.972 34.18 25.93 0 42.913-16.85 42.913-34.18 0-17.39-16.983-34.18-42.913-34.18z" />
<glyph unicode="&#xe667;" glyph-name="icon-arrow-right2" d="M276.755-46.936c28.497-29.315 74.739-29.315 103.307 0l367.236 378.011c28.483 29.367 28.483 76.982 0 106.291l-367.236 377.997c-28.562 29.367-74.806 29.367-103.307 0-28.546-29.325-28.546-76.929 0-106.304l315.6-324.841-315.599-324.803c-28.545-29.367-28.544-76.973 0-106.356v0z" />
<glyph unicode="&#xe668;" glyph-name="touxiang" d="M924.6 559.1c-22.6 53.3-54.8 101.2-96 142.3-41.1 41.1-89 73.4-142.3 96-55.2 23.4-113.8 35.2-174.3 35.2s-119.1-11.8-174.3-35.2c-53.3-22.6-101.2-54.8-142.3-96-41.1-41.1-73.4-89-96-142.3-23.4-55.2-35.2-113.9-35.2-174.3s11.8-119.1 35.2-174.3c22.6-53.3 54.8-101.2 96-142.3 41.1-41.1 89-73.4 142.3-96 55.2-23.4 113.9-35.2 174.3-35.2s119.1 11.8 174.3 35.2c53.3 22.6 101.2 54.8 142.3 96 41.1 41.1 73.4 89 96 142.3 23.4 55.2 35.2 113.9 35.2 174.3s-11.8 119.1-35.2 174.3zM788.2 143.6c-37.6 22.8-75.2 25.4-75.2 25.4l-123.7 52.4v65c24.1 12.2 34 81.7 34 81.7 27.7-1.1 23.7 51.9 24.1 73.9s-11.5 17.7-11.5 17.7c6.3 42 3.6 74.2 3.6 74.2-16.6 103.7-126.9 104.9-126.9 104.9l-0.1-11.8-0.1 11.8s-110.3-1.2-126.9-104.9c0 0-2.8-32.2 3.6-74.2 0 0-11.9 4.3-11.5-17.7s-3.6-75 24.1-73.8c0 0 9.9-69.5 34-81.7v-65l-123.7-52.5s-38-2.7-75.8-25.9c-56.6 64.6-91 149.2-91 241.6 0 202.3 164.6 366.9 366.9 366.9s366.9-164.6 366.9-366.9c-0.1-92.2-34.3-176.6-90.8-241.1z" />
<glyph unicode="&#xe6a1;" glyph-name="guanyu" d="M512 811.527c223.010 0 406.194-183.186 406.194-406.194s-183.186-406.194-406.194-406.194c-223.010 0-406.194 183.186-406.194 406.194 0 223.010 183.186 406.194 406.194 406.194zM512 855.333c-248.894 0-450-201.106-450-450s201.106-450 450-450c248.894 0 450 201.106 450 450s-201.106 450-450 450v0zM543.858 255.996c-17.92-17.92-41.814-33.849-49.778-39.823 3.982 21.902 23.894 71.682 49.778 157.3 25.884 87.61 27.877 101.549 27.877 109.513 0 11.947-3.983 23.894-13.938 31.858-21.903 17.92-57.743 13.938-103.539-11.947-23.894-13.938-49.778-35.841-79.645-69.69l-15.929-15.929 51.771-39.823 11.947 13.938c13.938 11.947 45.796 39.823 51.771 45.796-39.823-129.425-79.645-226.99-79.645-262.832 0-15.929 5.973-29.867 13.938-39.823 9.955-9.955 23.894-15.929 39.823-15.929 13.938 0 31.859 5.973 53.761 17.92 17.92 11.947 45.796 33.849 85.62 71.682l15.929 15.929-45.796 45.796-13.938-13.938zM504.035 678.121c-9.955-11.947-15.929-27.877-15.929-45.796 0-15.929 3.982-27.877 13.938-37.832s21.903-15.929 35.841-15.929c11.947 0 27.877 3.982 43.806 21.902 11.947 11.947 17.92 27.877 17.92 45.796 0 13.938-3.983 27.877-13.938 37.832-19.912 19.912-57.743 17.92-81.637-5.973v0z" />
<glyph unicode="&#xe6a2;" glyph-name="guanyu1" d="M512 811.527c223.010 0 406.194-183.186 406.194-406.194s-183.186-406.194-406.194-406.194c-223.010 0-406.194 183.186-406.194 406.194 0 223.010 183.186 406.194 406.194 406.194zM512 855.333c-248.894 0-450-201.106-450-450s201.106-450 450-450c248.894 0 450 201.106 450 450s-201.106 450-450 450v0zM543.858 255.996c-17.92-17.92-41.814-33.849-49.778-39.823 3.982 21.902 23.894 71.682 49.778 157.3 25.884 87.61 27.877 101.549 27.877 109.513 0 11.947-3.983 23.894-13.938 31.858-21.903 17.92-57.743 13.938-103.539-11.947-23.894-13.938-49.778-35.841-79.645-69.69l-15.929-15.929 51.771-39.823 11.947 13.938c13.938 11.947 45.796 39.823 51.771 45.796-39.823-129.425-79.645-226.99-79.645-262.832 0-15.929 5.973-29.867 13.938-39.823 9.955-9.955 23.894-15.929 39.823-15.929 13.938 0 31.859 5.973 53.761 17.92 17.92 11.947 45.796 33.849 85.62 71.682l15.929 15.929-45.796 45.796-13.938-13.938zM504.035 678.121c-9.955-11.947-15.929-27.877-15.929-45.796 0-15.929 3.982-27.877 13.938-37.832s21.903-15.929 35.841-15.929c11.947 0 27.877 3.982 43.806 21.902 11.947 11.947 17.92 27.877 17.92 45.796 0 13.938-3.983 27.877-13.938 37.832-19.912 19.912-57.743 17.92-81.637-5.973v0z" />
<glyph unicode="&#xe6b2;" glyph-name="lianjie" d="M968.413 763.099c-34.055 34.247-81.205 55.443-133.305 55.443-0.192 0-0.384 0-0.576-0.001h0.030c-50.469 0-98.011-19.749-133.705-55.442l-235.154-235.154 0.146-0.146-261.413-261.486c-20.15-20.013-32.622-47.735-32.622-78.369 0-0.066 0-0.131 0-0.197v0.010c0-29.696 11.557-57.637 32.622-78.702 20.992-20.992 48.933-32.549 78.629-32.549s57.637 11.557 78.555 32.549l443.319 443.246-46.958 47.031-443.246-443.246c-8.054-7.786-19.040-12.584-31.146-12.584-0.185 0-0.369 0.001-0.553 0.003h0.028c-0.148-0.002-0.323-0.003-0.499-0.003-12.078 0-23.043 4.768-31.114 12.524l0.015-0.014c-8.147 8.086-13.19 19.29-13.19 31.671s5.043 23.585 13.188 31.668l499.422 499.788c22.821 21.211 52.297 32.914 83.675 32.914 0.131 0.001 0.285 0.001 0.44 0.001 67.501 0 122.222-54.721 122.222-122.222 0-0.18 0-0.361-0.001-0.541v0.028c0-32.768-12.727-63.634-35.84-86.747l-512.366-512.366c-36.115-36.282-86.097-58.734-141.323-58.734-0.176 0-0.353 0-0.529 0.001h0.027c-0.18-0.001-0.392-0.001-0.605-0.001-55.216 0-105.189 22.453-141.284 58.727l-0.008 0.008c-36.325 36.1-58.808 86.092-58.808 141.335 0 0.198 0 0.396 0.001 0.593v-0.031c0 53.687 20.846 104.082 58.734 141.97l459.045 459.045-47.031 47.031-458.971-459.118c-48.345-48.097-78.264-114.674-78.264-188.24 0-0.242 0-0.484 0.001-0.726v0.037c0-71.314 27.794-138.459 78.263-188.855 50.469-50.469 117.467-78.263 188.855-78.263h0.073c71.314 0 138.386 27.794 188.855 78.263l512.366 512.366c34.16 34.041 55.297 81.132 55.297 133.159 0 0.218 0 0.435-0.001 0.652v-0.033c0 50.542-19.675 98.011-55.369 133.705z" />
<glyph unicode="&#xe6e4;" glyph-name="qq" d="M154.286 435.429q-4.571 10.857-4.571 29.714 0 11.429 6.286 28t13.714 25.714q-0.571 12.571 4.286 30.286t12.857 24.571q0 79.429 52.857 164.857t124.286 119.714q79.429 37.714 185.143 37.714 76 0 152-31.429 28-12 51.429-27.429t40.571-32 31.429-38.857 24-42.286 18.571-48.286 14.571-51.143 12.571-56l0.571-2.857q31.429-47.429 31.429-85.714 0-8-5.143-22.857t-5.143-21.714q0-0.571 0.857-2t2-2.857 1.143-2q44-65.143 68.857-122.571t24.857-119.143q0-24.571-11.143-57.143t-31.714-32.571q-5.143 0-11.143 4.286t-10.857 10-10.857 14.857-9.143 15.143-7.714 14.857-5.143 10q-0.571 0.571-1.714 0.571l-2.857-2.286q-33.714-88-75.429-127.429 11.429-11.429 35.143-22t39.429-23.714 20.286-37.143q-1.143-2.286-2.286-9.143t-4-10.286q-36.571-55.429-172.571-55.429-30.286 0-63.143 5.143t-56 11.429-59.714 17.143q-8.571 2.857-13.143 4-8 2.286-26.286 2.571t-22.857 0.857q-23.429-25.714-72.857-37.143t-96.286-11.429q-20 0-39.429 0.857t-53.143 5.143-57.714 11.714-42.571 22.857-18.571 36.571q0 22.857 5.714 34t23.429 27.714q6.286 1.143 23.143 7.429t28.286 6.857q2.286 0 8 1.143 1.143 1.143 1.143 2.286l-1.143 1.714q-27.429 6.286-61.714 60.286t-41.714 89.429l-2.857 1.714q-2.286 0-6.857-11.429-10.286-23.429-31.143-42.571t-44.286-21.429h-0.571q-2.286 0-3.429 2.571t-2.857 3.143q-13.143 30.857-13.143 57.143 0 157.143 144 266.286z" />
<glyph unicode="&#xe6e8;" glyph-name="biaoti" d="M800.512 421.056h-377.6c-0.019 0-0.042 0-0.064 0-13.396 0-24.256-10.86-24.256-24.256 0-0.023 0-0.045 0-0.068v0.004c0-13.504 10.816-24.32 24.32-24.32h377.6c13.504 0 24.32 10.816 24.32 24.32-0.143 13.374-10.946 24.177-24.306 24.32h-0.014zM422.912 217.28c-0.019 0-0.042 0-0.064 0-13.396 0-24.256-10.86-24.256-24.256 0-0.023 0-0.045 0-0.068v0.004c0-13.504 10.816-24.32 24.32-24.32h377.6c13.504 0 24.32 10.816 24.32 24.32-0.143 13.374-10.946 24.177-24.306 24.32h-377.614zM928.064 686.4h-252.736l-5.376 15.68c-37.824 104.832-110.272 129.728-164.288 132.416h-409.728c-0.039 0-0.084 0-0.13 0-34.411 0-62.337-27.769-62.59-62.12v-776.728c0-34.048 28.096-62.144 62.72-62.144h832.128c0.001 0 0.002 0 0.003 0 34.437 0 62.391 27.753 62.717 62.113v628.639c-0.072 34.337-27.924 62.146-62.272 62.146-0.158 0-0.315-0.001-0.472-0.002h0.024zM79.68 742.656c0 48.128 17.856 41.6 90.816 41.6h261.056c110.784 0 139.456-23.808 160.512-61.056l15.68-36.736h-528.064v56.192zM852.928-16.768h-682.432c-74.56 0-86.464 5.952-86.464 85.952v566.464h784.576c78.912 0 70.784-30.784 70.784-85.952v-492.928c0.064-72.448-25.344-73.536-86.464-73.536zM196.992 359.424h78.912v78.912h-78.912v-78.912zM196.992 153.472h78.912v78.912h-78.912v-78.912z" />
<glyph unicode="&#xe6ff;" glyph-name="search" d="M939.44 47.13l-186.78 186.78c48.508 62.379 77.768 141.819 77.768 228.093 0 206.212-167.168 373.38-373.38 373.38s-373.38-167.168-373.38-373.38c0-206.212 167.168-373.38 373.38-373.38 91.75 0 175.77 33.093 240.776 87.994l-0.555-0.457 185.6-185.6c1.448-1.45 3.449-2.346 5.66-2.346s4.212 0.897 5.66 2.346v0l45.25 45.25c1.45 1.448 2.346 3.449 2.346 5.66s-0.897 4.212-2.346 5.66v0zM458 169c0 0 0 0 0 0-161.267 0-292 130.733-292 292s130.733 292 292 292c161.267 0 292-130.733 292-292 0-80.631-32.681-153.629-85.52-206.47v0c-52.55-52.834-125.299-85.531-205.685-85.531-0.28 0-0.559 0-0.839 0.001h0.043z" />
<glyph unicode="&#xea0a;" glyph-name="GitHub" horiz-adv-x="1049" d="M524.979 896c-290.303 0-524.979-234.676-524.979-524.979 0-232.069 150.367-428.501 358.968-498.035 26.075-5.215 35.636 11.299 35.636 25.206 0 12.168-0.869 53.889-0.869 97.347-146.021-31.29-176.442 62.58-176.442 62.58-23.468 60.842-58.234 76.487-58.234 76.487-47.804 32.159 3.477 32.159 3.477 32.159 53.019-3.477 80.833-53.889 80.833-53.889 46.935-79.964 122.553-57.365 152.974-43.459 4.346 33.898 18.253 57.365 33.029 70.403-116.469 12.168-239.022 57.365-239.022 259.013 0 57.365 20.86 104.301 53.889 140.806-5.215 13.038-23.468 66.926 5.215 139.067 0 0 44.328 13.907 144.282-53.889 41.72 11.299 86.917 17.383 131.245 17.383s89.525-6.084 131.245-17.383c99.955 67.795 144.282 53.889 144.282 53.889 28.683-72.141 10.43-126.030 5.215-139.067 33.898-36.505 53.889-83.44 53.889-140.806 0-201.648-122.553-245.975-239.891-259.013 19.122-16.514 35.636-47.804 35.636-97.347 0-70.403-0.869-126.899-0.869-144.282 0-13.907 9.561-30.421 35.636-25.206 208.601 69.534 358.968 265.966 358.968 498.035 0.869 290.303-234.676 524.979-524.11 524.979zM199.040 142.429c-0.869-2.608-5.215-3.477-8.692-1.738s-6.084 5.215-4.346 7.823c0.869 2.608 5.215 3.477 8.692 1.738s5.215-5.215 4.346-7.823zM219.9 118.961c-2.608-2.608-7.823-0.869-10.43 2.608-3.477 3.477-4.346 8.692-1.738 11.299s6.953 0.869 10.43-2.608c3.477-4.346 4.346-9.561 1.738-11.299zM240.76 88.54c-3.477-2.608-8.692 0-11.299 4.346-3.477 4.346-3.477 10.43 0 12.168 3.477 2.608 8.692 0 11.299-4.346 3.477-4.346 3.477-9.561 0-12.168zM269.443 58.988c-2.608-3.477-8.692-2.608-13.907 1.738-4.346 4.346-6.084 10.43-2.608 13.038 2.608 3.477 8.692 2.608 13.907-1.738 4.346-3.477 5.215-9.561 2.608-13.038zM308.556 42.474c-0.869-4.346-6.953-6.084-13.038-4.346s-9.561 6.953-8.692 10.43c0.869 4.346 6.953 6.084 13.038 4.346s9.561-6.084 8.692-10.43zM351.145 38.997c0-4.346-5.215-7.823-11.299-7.823s-11.299 3.477-11.299 7.823 5.215 7.823 11.299 7.823c6.084 0 11.299-3.477 11.299-7.823zM391.127 45.951c0.869-4.346-3.477-8.692-9.561-9.561s-11.299 1.738-12.168 6.084c-0.869 4.346 3.477 8.692 9.561 9.561s11.299-1.738 12.168-6.084zM391.127 45.951" />
</font>
</defs>
</svg>
